<svg xmlns="http://www.w3.org/2000/svg" width="944.986" height="344.608" viewBox="0 0 944.986 344.608">
  <g id="Group_18" data-name="Group 18" transform="translate(-46.554 -459.166)">
    <g id="Group_10" data-name="Group 10">
      <path id="Path_35" data-name="Path 35" d="M535.668,631.486" fill="#0b9444" stroke="#0b9444" stroke-miterlimit="10" stroke-width="8.756"/>
    </g>
    <g id="Group_13" data-name="Group 13" opacity="0.97">
      <g id="Group_11" data-name="Group 11">
        <path id="Path_36" data-name="Path 36" d="M373.125,576.084v108.2H263.94V793.47h-108.2V684.285H46.554v-108.2H155.738V466.9h108.2V576.084Z" fill="#25aae2"/>
      </g>
      <g id="Group_12" data-name="Group 12">
        <path id="Path_37" data-name="Path 37" d="M382.961,567.231s10.82-63.937,4.918-81.643C356.4,463.948,261.972,440.34,212.79,499.359c-28.968,38.117-26.558,79.676-7.324,112.4,11.107,18.9,28.67,33.159,48.218,43.074,37.634,19.088,89.367,37.422,83.425,78.4C332.8,762.977,314.18,772.254,291.6,773.05c-29.955,1.056-71.56-18.707-96.6-105.6-1.487-5.157-7.042-10.113-12.394-10.523a19.315,19.315,0,0,0-12.158,3.12,1.743,1.743,0,0,0-.774,1.714c2.114,15.208,7.861,97.543,13.609,107.122,13.771,19.673,86.561,47.215,157.383,21.64,51.185-19.813,84.355-64.571,62.293-117.989-8.006-19.384-22.163-35.6-39.754-47.021-39.127-25.4-92.354-45.666-97.3-76.967-6.64-14.94.726-57.89,41.006-54.4,16.149,1.4,30.742,10.08,40.6,22.949,10.837,14.15,16.54,29.781,18.4,50.782a6.655,6.655,0,0,0,4.663,5.756C375.528,575.148,380.7,575.541,382.961,567.231Z" fill="#0b9444"/>
        <path id="Path_38" data-name="Path 38" d="M280.071,803.774a192.31,192.31,0,0,1-40.11-4.221c-27.3-5.833-51.046-17.48-59.1-28.982l-.113-.174c-4.166-6.943-7.676-41.844-11.507-83.326-1.072-11.6-1.919-20.771-2.494-24.908a4.71,4.71,0,0,1,2.1-4.6,22.24,22.24,0,0,1,13.978-3.58c6.4.492,13.134,6.166,15,12.649,26.5,91.969,70.065,104.3,93.659,103.472,25.57-.9,39.137-12.752,42.7-37.295,4.858-33.5-31.436-50.962-66.535-67.849-5.338-2.568-10.38-4.994-15.3-7.492-21.849-11.082-38.94-26.37-49.427-44.211-22.283-37.909-19.543-80.073,7.518-115.68l.083-.1c27.885-33.461,67.909-39.23,96.559-38.193,34.825,1.271,66.513,12.909,82.469,23.879l.815.56.313.939c6.065,18.2-4.362,80.428-4.808,83.068l-.063.284c-1.1,4.03-2.994,6.81-5.633,8.263-3.508,1.931-7.434,1.108-10.463.177a9.552,9.552,0,0,1-6.735-8.315c-1.806-20.337-7.3-35.526-17.809-49.249-9.627-12.57-23.664-20.518-38.51-21.8-13.864-1.2-24.953,3.447-32.079,13.44-8.98,12.593-9.24,29.477-5.975,36.824l.158.354.06.384c3.46,21.914,32.965,38.553,64.2,56.169,10.687,6.026,21.738,12.259,31.788,18.783,18.677,12.125,32.811,28.851,40.873,48.369,9.2,22.285,9.5,44.726.855,64.9-10.565,24.649-33.581,44.882-64.81,56.971A182.3,182.3,0,0,1,280.071,803.774Zm-94.307-36.495c13.169,18.567,84.691,45.456,153.9,20.464,29.672-11.487,51.519-30.591,61.452-53.768,8.119-18.945,7.821-39.239-.885-60.318-7.6-18.409-20.962-34.2-38.632-45.673-9.895-6.423-20.865-12.61-31.473-18.592-32.35-18.245-62.916-35.48-67.07-60.013-4.216-10.007-2.873-28.834,6.719-42.286,5.863-8.22,17.112-17.65,37.394-15.893,16.495,1.428,32.053,10.21,42.687,24.094,11.23,14.664,17.091,30.8,19,52.316a3.721,3.721,0,0,0,2.591,3.2c2.847.875,4.661.964,5.883.293,1.162-.64,2.086-2.157,2.746-4.508.558-3.35,10.123-61.513,5.284-79.145-29.9-19.818-121.993-44.086-170.261,13.751-25.5,33.593-28.086,73.343-7.089,109.066,9.913,16.865,26.169,31.367,47.009,41.937,4.869,2.47,9.884,4.883,15.193,7.438,35.294,16.981,75.3,36.227,69.818,74.014-3.987,27.489-19.8,41.34-48.33,42.346-25.308.908-71.929-11.915-99.538-107.735-1.18-4.094-5.843-8.1-9.784-8.4a16.3,16.3,0,0,0-9.68,2.257c.588,4.549,1.4,13.385,2.422,24.406C177.514,712.449,181.961,760.6,185.764,767.279Z" fill="#fff"/>
      </g>
    </g>
    <g id="Group_17" data-name="Group 17">
      <g id="Group_14" data-name="Group 14">
        <path id="Path_39" data-name="Path 39" d="M450.157,537.027l12.345-1.055a16.013,16.013,0,0,0,1.633,6.254,6.29,6.29,0,0,0,5.729,3.478,5.3,5.3,0,0,0,4.282-1.778,6.337,6.337,0,0,0,.072-8.111q-1.432-1.758-6.645-3.321-8.537-2.619-12.174-6.957a16.54,16.54,0,0,1-3.667-11.061,19.112,19.112,0,0,1,1.876-8.344,14.153,14.153,0,0,1,5.643-6.175q3.766-2.247,10.327-2.248,8.049,0,12.274,4.085t5.027,12.995l-12.231.977a10.408,10.408,0,0,0-2.048-5.628,5.466,5.466,0,0,0-4.311-1.759,4.291,4.291,0,0,0-3.409,1.309,4.671,4.671,0,0,0-1.146,3.186,3.664,3.664,0,0,0,.946,2.462q.916,1.134,4.354,2.11,8.506,2.5,12.188,5.062a15.128,15.128,0,0,1,5.356,6.351,20.759,20.759,0,0,1,1.676,8.481A23.167,23.167,0,0,1,486.02,547.5a16.078,16.078,0,0,1-6.245,7.054,19.4,19.4,0,0,1-10.111,2.4q-10.715,0-14.838-5.628T450.157,537.027Z" fill="#0b9444"/>
        <path id="Path_40" data-name="Path 40" d="M522.112,498.687h12.947v34.136a38.341,38.341,0,0,1-1.16,9.588,22.763,22.763,0,0,1-3.638,7.89,15.122,15.122,0,0,1-5.2,4.745,19.914,19.914,0,0,1-9.08,1.914,42.074,42.074,0,0,1-6.689-.586,14.18,14.18,0,0,1-6.058-2.324,17.252,17.252,0,0,1-4.454-4.941,20.6,20.6,0,0,1-2.764-6.6,45.723,45.723,0,0,1-1.2-9.686V498.687h12.948v34.948a12.31,12.31,0,0,0,1.9,7.323,6.617,6.617,0,0,0,10.541.039q1.905-2.6,1.905-7.362Z" fill="#0b9444"/>
        <path id="Path_41" data-name="Path 41" d="M543.824,555.982V498.687H565.45q6.016,0,9.2,1.407a10.72,10.72,0,0,1,5.126,5.217,20.209,20.209,0,0,1,1.949,9.282,20.687,20.687,0,0,1-1.491,8.227,14.614,14.614,0,0,1-4.1,5.609,13.386,13.386,0,0,1-4.558,2.267,11.755,11.755,0,0,1,3.378,2.112,16.763,16.763,0,0,1,2.076,3.012,24.157,24.157,0,0,1,1.818,3.56l6.283,16.6H570.468l-6.937-17.509a13.87,13.87,0,0,0-2.348-4.416,4.505,4.505,0,0,0-3.18-1.329h-1.146v23.254Zm13.033-34.08h5.471a14.786,14.786,0,0,0,3.438-.782,3.491,3.491,0,0,0,2.1-1.8,6.645,6.645,0,0,0,.816-3.323,6.309,6.309,0,0,0-1.289-4.26q-1.289-1.485-4.84-1.485h-5.7Z" fill="#0b9444"/>
        <path id="Path_42" data-name="Path 42" d="M609.334,535.229v-11.92h20.052v24.427q-5.758,5.355-10.184,7.289a26.08,26.08,0,0,1-10.5,1.935q-7.476,0-12.188-3.479a22.112,22.112,0,0,1-7.3-10.357,44.571,44.571,0,0,1-2.593-15.79,42.943,42.943,0,0,1,2.836-16.316,22.235,22.235,0,0,1,8.307-10.534q4.267-2.773,11.486-2.775,6.961,0,10.413,1.72a14.282,14.282,0,0,1,5.729,5.335,27.612,27.612,0,0,1,3.422,9.165l-12.517,3.049a9.647,9.647,0,0,0-2.621-4.964,6.647,6.647,0,0,0-4.712-1.72,7.717,7.717,0,0,0-6.8,4.045q-2.535,4.046-2.535,12.8,0,9.3,2.563,13.288a8.057,8.057,0,0,0,7.147,3.987,10.31,10.31,0,0,0,4.154-.859,20.521,20.521,0,0,0,4.526-2.932v-5.394Z" fill="#0b9444"/>
        <path id="Path_43" data-name="Path 43" d="M637.606,498.687h13v57.295h-13Z" fill="#0b9444"/>
        <path id="Path_44" data-name="Path 44" d="M656.971,498.687h39.443v14.148H683.18v43.147H670.2V512.835H656.971Z" fill="#0b9444"/>
        <path id="Path_45" data-name="Path 45" d="M702.256,498.687H737.03v12.232H715.261v9.107h20.194v11.686H715.261v11.3h22.4v12.975H702.256Z" fill="#0b9444"/>
        <path id="Path_46" data-name="Path 46" d="M772.607,532.533l11.372,4.69a34.324,34.324,0,0,1-3.609,10.9,16,16,0,0,1-15.411,8.833q-6.846,0-11.186-2.715t-7.49-9.549q-3.152-6.836-3.151-17.5,0-14.217,5.543-21.853t15.682-7.636q7.934,0,12.475,4.378t6.746,13.444L772.12,519.01a16.1,16.1,0,0,0-1.26-3.83,8.731,8.731,0,0,0-2.664-3.127,6.038,6.038,0,0,0-3.523-1.095q-4.413,0-6.761,4.841-1.774,3.592-1.775,11.282,0,9.525,2.119,13.058a6.614,6.614,0,0,0,5.959,3.533,6.33,6.33,0,0,0,5.628-2.854A21.032,21.032,0,0,0,772.607,532.533Z" fill="#0b9444"/>
        <path id="Path_47" data-name="Path 47" d="M790.338,498.687h12.976v20.049h14.179V498.687h13.033v57.295H817.493V532.806H803.314v23.176H790.338Z" fill="#0b9444"/>
      </g>
      <g id="Group_15" data-name="Group 15">
        <path id="Path_48" data-name="Path 48" d="M452.99,595.18h13.149v57.3H452.99Z" fill="#25aae2"/>
        <path id="Path_49" data-name="Path 49" d="M475.638,595.18h12.251l15.987,31.7v-31.7h12.367v57.3H503.876l-15.9-31.459v31.459H475.638Z" fill="#25aae2"/>
        <path id="Path_50" data-name="Path 50" d="M521.978,595.18h39.88v14.148h-13.38v43.148h-13.12V609.328h-13.38Z" fill="#25aae2"/>
        <path id="Path_51" data-name="Path 51" d="M567.767,595.18h35.16v12.233H580.915v9.107h20.419v11.685H580.915V639.5h22.648v12.976h-35.8Z" fill="#25aae2"/>
        <path id="Path_52" data-name="Path 52" d="M610.8,652.476v-57.3h21.866q6.082,0,9.3,1.407a10.779,10.779,0,0,1,5.183,5.218,20.009,20.009,0,0,1,1.97,9.282,20.483,20.483,0,0,1-1.507,8.226,14.626,14.626,0,0,1-4.143,5.609,13.586,13.586,0,0,1-4.609,2.266,11.991,11.991,0,0,1,3.416,2.113,16.743,16.743,0,0,1,2.1,3.012,24.055,24.055,0,0,1,1.838,3.56l6.353,16.6H637.743l-7.013-17.509a13.764,13.764,0,0,0-2.375-4.417,4.577,4.577,0,0,0-3.214-1.329h-1.159v23.255Zm13.177-34.08h5.532a15.1,15.1,0,0,0,3.475-.783,3.521,3.521,0,0,0,2.129-1.8,6.581,6.581,0,0,0,.825-3.322,6.265,6.265,0,0,0-1.3-4.26q-1.3-1.483-4.9-1.485h-5.763Z" fill="#25aae2"/>
        <path id="Path_53" data-name="Path 53" d="M656.854,595.18H669.1l15.987,31.7v-31.7h12.367v57.3H685.092l-15.9-31.459v31.459H656.854Z" fill="#25aae2"/>
        <path id="Path_54" data-name="Path 54" d="M731.7,643.018H716.8l-2.07,9.458H701.34l15.958-57.3h14.31l15.955,57.3H733.824Zm-2.721-12.39-4.687-20.6-4.638,20.6Z" fill="#25aae2"/>
        <path id="Path_55" data-name="Path 55" d="M744.667,595.18h39.881v14.148H771.167v43.148H758.048V609.328H744.667Z" fill="#25aae2"/>
        <path id="Path_56" data-name="Path 56" d="M791.006,595.18h13.149v57.3H791.006Z" fill="#25aae2"/>
        <path id="Path_57" data-name="Path 57" d="M811.917,623.867q0-14.031,5.793-21.847t16.132-7.818q10.6,0,16.334,7.681T855.91,623.4q0,10.047-2.5,16.474a22.333,22.333,0,0,1-7.24,10.006,19.028,19.028,0,0,1-11.8,3.576q-7.182,0-11.888-3.088t-7.632-9.77Q811.917,633.911,811.917,623.867Zm13.12.078q0,8.676,2.39,12.467a7.547,7.547,0,0,0,13.047.078q2.317-3.711,2.317-13.327,0-8.09-2.419-11.822a7.463,7.463,0,0,0-6.56-3.733,7.273,7.273,0,0,0-6.372,3.791Q825.037,615.191,825.037,623.945Z" fill="#25aae2"/>
        <path id="Path_58" data-name="Path 58" d="M863.064,595.18h12.251l15.987,31.7v-31.7h12.367v57.3H891.3l-15.9-31.459v31.459H863.064Z" fill="#25aae2"/>
        <path id="Path_59" data-name="Path 59" d="M937.91,643.018H923.015l-2.07,9.458h-13.4l15.958-57.3h14.31l15.955,57.3H940.034Zm-2.722-12.39-4.686-20.6-4.638,20.6Z" fill="#25aae2"/>
        <path id="Path_60" data-name="Path 60" d="M957.944,595.18h13.119v43.186H991.54v14.11h-33.6Z" fill="#25aae2"/>
      </g>
      <g id="Group_16" data-name="Group 16">
        <path id="Path_61" data-name="Path 61" d="M452.832,693.818h23.951q7.824,0,11.721,4.574t3.9,13.014q0,8.676-4.246,13.562t-12.962,4.886H467.3v21.26H452.832ZM467.3,718.245h3.53q4.167,0,5.853-1.778a6.347,6.347,0,0,0,1.686-4.553,7.213,7.213,0,0,0-1.463-4.573q-1.463-1.875-5.5-1.876h-4.1Z" fill="#25aae2"/>
        <path id="Path_62" data-name="Path 62" d="M495.263,709.608h13.469l6.554,26.3,6.8-26.3H535.15l-14.357,41.506H509.311Z" fill="#25aae2"/>
        <path id="Path_63" data-name="Path 63" d="M554.489,693.818v15.79h7.125v11.647h-7.125V735.96a9.562,9.562,0,0,0,.413,3.51,2.265,2.265,0,0,0,2.227,1.326,11.914,11.914,0,0,0,4.008-1.014l.954,10.981a34.741,34.741,0,0,1-8.97,1.29q-4.836,0-7.125-1.523a8.888,8.888,0,0,1-3.388-4.626q-1.1-3.1-1.1-10.05v-14.6H536.74V709.608h4.772v-7.621Z" fill="#25aae2"/>
        <path id="Path_64" data-name="Path 64" d="M567.816,735.168h13.836v15.946H567.816Z" fill="#25aae2"/>
        <path id="Path_65" data-name="Path 65" d="M612.061,693.818h14.408v43.187h22.488v14.109h-36.9Z" fill="#25aae2"/>
        <path id="Path_66" data-name="Path 66" d="M670.269,693.818v15.79h7.125v11.647h-7.125V735.96a9.538,9.538,0,0,0,.413,3.51,2.264,2.264,0,0,0,2.226,1.326,11.914,11.914,0,0,0,4.008-1.014l.954,10.981a34.735,34.735,0,0,1-8.97,1.29q-4.835,0-7.125-1.523a8.881,8.881,0,0,1-3.387-4.626q-1.1-3.1-1.1-10.05v-14.6H652.52V709.608h4.771v-7.621Z" fill="#25aae2"/>
        <path id="Path_67" data-name="Path 67" d="M719.125,693.818v57.3H707.006v-6.135a18.1,18.1,0,0,1-4.644,5.276,11.306,11.306,0,0,1-6.234,1.8q-6.9,0-10.545-6.449t-3.642-15.672q0-10.319,4.024-15.79t10.226-5.472a11.949,11.949,0,0,1,5.487,1.251,12.827,12.827,0,0,1,4.374,3.752V693.818Zm-12.978,36.426q0-4.886-1.686-7.289a5.039,5.039,0,0,0-4.262-2.4,4.457,4.457,0,0,0-3.785,2.3q-1.527,2.307-1.526,7.739,0,5.08,1.574,7.445a4.6,4.6,0,0,0,3.9,2.364,4.894,4.894,0,0,0,4.135-2.384Q706.148,735.639,706.147,730.244Z" fill="#25aae2"/>
        <path id="Path_68" data-name="Path 68" d="M727.045,735.168h13.836v15.946H727.045Z" fill="#25aae2"/>
      </g>
    </g>
  </g>
</svg>
