<svg xmlns="http://www.w3.org/2000/svg" width="595.296" height="710.892" viewBox="0 0 595.296 710.892">
  <g id="Group_9" data-name="Group 9" transform="translate(-259.579 -172.014)">
    <g id="Group_2" data-name="Group 2">
      <path id="Path_1" data-name="Path 1" d="M722.694,564.127" fill="#0b9444" stroke="#0b9444" stroke-miterlimit="10" stroke-width="9.091"/>
    </g>
    <g id="Group_5" data-name="Group 5" opacity="0.97">
      <g id="Group_3" data-name="Group 3">
        <path id="Path_2" data-name="Path 2" d="M730.013,312.881V443.244H598.464V574.793H468.1V443.244H336.552V312.881H468.1V181.332H598.464V312.881Z" fill="#25aae2"/>
      </g>
      <g id="Group_4" data-name="Group 4">
        <path id="Path_3" data-name="Path 3" d="M741.864,302.215s13.036-77.033,5.925-98.366c-37.924-26.072-151.7-54.515-210.952,16.592-34.9,45.924-32,96-8.824,135.422,13.382,22.766,34.543,39.95,58.095,51.9,45.342,23,107.672,45.088,100.512,94.454-5.2,35.841-27.626,47.019-54.836,47.978-36.09,1.272-86.216-22.539-116.383-127.234-1.791-6.214-8.484-12.185-14.932-12.68a23.286,23.286,0,0,0-14.649,3.76,2.1,2.1,0,0,0-.932,2.065c2.547,18.323,9.471,117.522,16.4,129.063,16.591,23.7,104.291,56.886,189.619,26.073,61.669-23.872,101.633-77.8,75.052-142.156-9.646-23.355-26.7-42.894-47.9-56.653-47.142-30.6-111.27-55.02-117.225-92.732-8-18,.875-69.747,49.405-65.545,19.457,1.685,37.039,12.146,48.914,27.651,13.056,17.047,19.928,35.881,22.175,61.182a8.018,8.018,0,0,0,5.618,6.936C732.908,311.753,739.133,312.226,741.864,302.215Z" fill="#0b9444"/>
        <path id="Path_4" data-name="Path 4" d="M617.9,587.208a231.629,231.629,0,0,1-48.325-5.087c-32.888-7.027-61.5-21.059-71.2-34.917l-.136-.21c-5.019-8.365-9.248-50.415-13.864-100.391-1.292-13.983-2.312-25.028-3.005-30.012a5.676,5.676,0,0,1,2.534-5.547,26.772,26.772,0,0,1,16.841-4.312c7.716.592,15.825,7.429,18.076,15.24,31.926,110.8,84.384,125.668,112.842,124.666,30.809-1.086,47.154-15.365,51.443-44.935,5.852-40.359-37.873-61.4-80.161-81.745-6.432-3.1-12.507-6.018-18.442-9.028-26.325-13.352-46.917-31.771-59.551-53.265-12.409-21.114-18.584-44.348-17.855-67.19.813-25.47,9.868-49.757,26.914-72.185l.1-.125c33.6-40.316,81.817-47.277,116.336-46.015,41.957,1.531,80.137,15.553,99.362,28.77l.981.675.377,1.13c7.308,21.922-5.254,96.9-5.792,100.083l-.076.342c-1.324,4.856-3.607,8.2-6.785,9.954-4.226,2.327-8.957,1.338-12.609.215a11.508,11.508,0,0,1-8.114-10.02c-2.176-24.5-8.793-42.8-21.455-59.335-11.6-15.146-28.513-24.721-46.4-26.27-16.7-1.443-30.064,4.154-38.65,16.194-10.819,15.172-11.133,35.514-7.2,44.365l.189.428.074.462c4.17,26.4,39.717,46.45,77.352,67.674,12.876,7.262,26.191,14.77,38.3,22.63,22.505,14.61,39.534,34.762,49.246,58.278,11.089,26.849,11.445,53.886,1.03,78.189-12.729,29.7-40.459,54.075-78.084,68.639A219.643,219.643,0,0,1,617.9,587.208Zm-113.624-43.97C520.142,565.6,606.315,598,689.7,567.894c35.75-13.839,62.071-36.856,74.039-64.781,9.783-22.825,9.424-47.277-1.065-72.675-9.159-22.177-25.255-41.2-46.545-55.027-11.922-7.739-25.138-15.192-37.919-22.4C639.229,331.03,602.4,310.264,597.4,280.7c-5.079-12.056-3.461-34.739,8.1-50.946,7.063-9.9,20.616-21.267,45.053-19.149,19.873,1.721,38.618,12.3,51.431,29.031,13.531,17.668,20.591,37.107,22.893,63.03a4.48,4.48,0,0,0,3.121,3.851c3.43,1.055,5.618,1.164,7.089.353,1.4-.771,2.514-2.6,3.31-5.43.672-4.035,12.2-74.112,6.365-95.355-36.022-23.878-146.981-53.119-205.134,16.566-30.723,40.473-33.839,88.365-8.542,131.4,11.943,20.319,31.528,37.792,56.638,50.527,5.867,2.977,11.911,5.884,18.308,8.963,42.522,20.459,90.716,43.648,84.115,89.173-2.563,17.669-9.466,30.919-20.521,39.381-9.5,7.272-21.832,11.079-37.709,11.638-15.623.557-39.231-3.3-62.927-24.8-24.024-21.793-43.2-57.121-57-105-1.421-4.932-7.039-9.754-11.787-10.119a19.7,19.7,0,0,0-11.663,2.72c.708,5.483,1.691,16.129,2.917,29.406C494.336,477.178,499.7,535.2,504.275,543.238Z" fill="#fff"/>
      </g>
    </g>
    <g id="Group_6" data-name="Group 6">
      <path id="Path_5" data-name="Path 5" d="M343.942,645.223l13.647-1.166a17.661,17.661,0,0,0,1.805,6.912,6.951,6.951,0,0,0,6.332,3.845,5.856,5.856,0,0,0,4.734-1.966,7,7,0,0,0,.079-8.964q-1.584-1.944-7.346-3.672-9.435-2.893-13.456-7.691-4.053-4.794-4.053-12.224a21.132,21.132,0,0,1,2.074-9.225,15.634,15.634,0,0,1,6.237-6.825q4.164-2.483,11.415-2.484,8.9,0,13.567,4.514t5.557,14.365l-13.52,1.08q-.539-4.277-2.264-6.221a6.044,6.044,0,0,0-4.765-1.944A4.738,4.738,0,0,0,360.217,615a5.163,5.163,0,0,0-1.266,3.521,4.055,4.055,0,0,0,1.044,2.721q1.014,1.254,4.813,2.334,9.4,2.764,13.473,5.594a16.718,16.718,0,0,1,5.921,7.02,22.945,22.945,0,0,1,1.852,9.374,25.6,25.6,0,0,1-2.47,11.233,17.784,17.784,0,0,1-6.9,7.8,21.456,21.456,0,0,1-11.177,2.656q-11.843,0-16.4-6.221T343.942,645.223Z" fill="#0b9444"/>
      <path id="Path_6" data-name="Path 6" d="M423.479,602.843h14.312v37.733a42.4,42.4,0,0,1-1.283,10.6,25.208,25.208,0,0,1-4.021,8.722,16.72,16.72,0,0,1-5.747,5.245,22.006,22.006,0,0,1-10.037,2.115,46.52,46.52,0,0,1-7.393-.648,15.663,15.663,0,0,1-6.7-2.569,19.069,19.069,0,0,1-4.923-5.461,22.772,22.772,0,0,1-3.056-7.3,50.547,50.547,0,0,1-1.329-10.706V602.843h14.311v38.632q0,5.18,2.106,8.093a7.317,7.317,0,0,0,11.652.043q2.1-2.871,2.105-8.136Z" fill="#0b9444"/>
      <path id="Path_7" data-name="Path 7" d="M447.479,666.176V602.843h23.906q6.648,0,10.163,1.555a11.858,11.858,0,0,1,5.668,5.768,22.349,22.349,0,0,1,2.153,10.26,22.888,22.888,0,0,1-1.647,9.094,16.143,16.143,0,0,1-4.531,6.2,14.766,14.766,0,0,1-5.037,2.506,13.015,13.015,0,0,1,3.734,2.335,18.473,18.473,0,0,1,2.294,3.329,26.6,26.6,0,0,1,2.009,3.935l6.946,18.352H476.93l-7.667-19.354a15.31,15.31,0,0,0-2.6-4.883,4.984,4.984,0,0,0-3.515-1.468h-1.266v25.705ZM461.886,628.5h6.048a16.37,16.37,0,0,0,3.8-.863,3.866,3.866,0,0,0,2.327-1.988,7.336,7.336,0,0,0,.9-3.673,6.98,6.98,0,0,0-1.424-4.709q-1.425-1.64-5.351-1.64h-6.3Z" fill="#0b9444"/>
      <path id="Path_8" data-name="Path 8" d="M519.892,643.236V630.06h22.164v27q-6.365,5.918-11.256,8.056a28.814,28.814,0,0,1-11.6,2.139q-8.264,0-13.472-3.845t-8.074-11.448a49.271,49.271,0,0,1-2.866-17.453,47.484,47.484,0,0,1,3.135-18.037A24.574,24.574,0,0,1,507.1,604.83q4.717-3.068,12.7-3.067,7.694,0,11.509,1.9a15.77,15.77,0,0,1,6.333,5.9,30.536,30.536,0,0,1,3.783,10.13l-13.836,3.37a10.663,10.663,0,0,0-2.9-5.487,7.349,7.349,0,0,0-5.209-1.9q-4.717,0-7.52,4.471t-2.8,14.148q0,10.282,2.834,14.689a8.9,8.9,0,0,0,7.9,4.407,11.383,11.383,0,0,0,4.591-.951,22.573,22.573,0,0,0,5-3.241v-5.961Z" fill="#0b9444"/>
      <path id="Path_9" data-name="Path 9" d="M551.143,602.843h14.375v63.333H551.143Z" fill="#0b9444"/>
      <path id="Path_10" data-name="Path 10" d="M572.547,602.843h43.6v15.639H601.518v47.694H587.175V618.482H572.547Z" fill="#0b9444"/>
      <path id="Path_11" data-name="Path 11" d="M622.6,602.843h38.439v13.522H636.98v10.066H659.3v12.917H636.98v12.485h24.76v14.343H622.6Z" fill="#0b9444"/>
      <path id="Path_12" data-name="Path 12" d="M700.369,640.255l12.57,5.184a37.879,37.879,0,0,1-3.99,12.053,17.683,17.683,0,0,1-17.034,9.764q-7.567,0-12.364-3t-8.28-10.556q-3.484-7.555-3.483-19.343,0-15.712,6.127-24.154t17.335-8.44q8.77,0,13.789,4.839t7.457,14.861l-12.665,3.845a17.745,17.745,0,0,0-1.394-4.234,9.651,9.651,0,0,0-2.944-3.457,6.681,6.681,0,0,0-3.894-1.209q-4.876,0-7.473,5.351-1.963,3.971-1.963,12.47,0,10.528,2.343,14.433a7.308,7.308,0,0,0,6.586,3.905,7,7,0,0,0,6.221-3.153A23.238,23.238,0,0,0,700.369,640.255Z" fill="#0b9444"/>
      <path id="Path_13" data-name="Path 13" d="M719.968,602.843h14.344v22.162h15.672V602.843h14.407v63.333H749.984V640.558H734.312v25.618H719.968Z" fill="#0b9444"/>
    </g>
    <g id="Group_7" data-name="Group 7">
      <path id="Path_14" data-name="Path 14" d="M259.579,709.5h14.534v63.333H259.579Z" fill="#25aae2"/>
      <path id="Path_15" data-name="Path 15" d="M284.613,709.5h13.542l17.672,35.039V709.5H329.5v63.333h-13.67l-17.576-34.774v34.774H284.613Z" fill="#25aae2"/>
      <path id="Path_16" data-name="Path 16" d="M335.835,709.5h44.083v15.639h-14.79v47.694h-14.5V725.143h-14.79Z" fill="#25aae2"/>
      <path id="Path_17" data-name="Path 17" d="M386.449,709.5h38.865v13.522H400.983v10.066h22.57v12.917h-22.57v12.485h25.035v14.343H386.449Z" fill="#25aae2"/>
      <path id="Path_18" data-name="Path 18" d="M434.021,772.837V709.5h24.171q6.723,0,10.276,1.556a11.923,11.923,0,0,1,5.731,5.766,22.146,22.146,0,0,1,2.177,10.261,22.666,22.666,0,0,1-1.666,9.094,16.149,16.149,0,0,1-4.581,6.2,15,15,0,0,1-5.093,2.506,13.194,13.194,0,0,1,3.776,2.335,18.519,18.519,0,0,1,2.319,3.33,26.512,26.512,0,0,1,2.031,3.934l7.024,18.352H463.8l-7.752-19.355a15.262,15.262,0,0,0-2.625-4.88,5.062,5.062,0,0,0-3.554-1.47h-1.28v25.7Zm14.567-37.672H454.7a16.7,16.7,0,0,0,3.841-.863,3.9,3.9,0,0,0,2.353-1.988,7.277,7.277,0,0,0,.913-3.671,6.924,6.924,0,0,0-1.441-4.709q-1.441-1.643-5.411-1.642h-6.37Z" fill="#25aae2"/>
      <path id="Path_19" data-name="Path 19" d="M484.923,709.5h13.542l17.672,35.039V709.5h13.67v63.333h-13.67l-17.575-34.774v34.774H484.923Z" fill="#25aae2"/>
      <path id="Path_20" data-name="Path 20" d="M567.656,762.382H551.191L548.9,772.837H534.1L551.736,709.5h15.819l17.635,63.333H570Zm-3.009-13.694-5.18-22.767-5.125,22.767Z" fill="#25aae2"/>
      <path id="Path_21" data-name="Path 21" d="M581.99,709.5h44.082v15.639h-14.79v47.694h-14.5V725.143H581.99Z" fill="#25aae2"/>
      <path id="Path_22" data-name="Path 22" d="M633.211,709.5h14.534v63.333H633.211Z" fill="#25aae2"/>
      <path id="Path_23" data-name="Path 23" d="M656.325,741.214q0-15.51,6.4-24.15t17.832-8.64q11.716,0,18.055,8.489t6.339,23.782q0,11.1-2.769,18.209a24.667,24.667,0,0,1-8,11.06,21.029,21.029,0,0,1-13.046,3.953q-7.939,0-13.142-3.413t-8.435-10.8Q656.323,752.316,656.325,741.214Zm14.5.086q0,9.591,2.642,13.781a8.344,8.344,0,0,0,14.422.087q2.561-4.1,2.56-14.731,0-8.943-2.673-13.069a8.249,8.249,0,0,0-7.251-4.126q-4.384,0-7.043,4.191T670.827,741.3Z" fill="#25aae2"/>
      <path id="Path_24" data-name="Path 24" d="M712.862,709.5H726.4l17.672,35.039V709.5h13.67v63.333h-13.67L726.5,738.063v34.774H712.862Z" fill="#25aae2"/>
      <path id="Path_25" data-name="Path 25" d="M795.594,762.382H779.129l-2.287,10.455H762.034l17.64-63.333h15.819l17.636,63.333H797.942Zm-3.008-13.694-5.181-22.767-5.126,22.767Z" fill="#25aae2"/>
      <path id="Path_26" data-name="Path 26" d="M817.738,709.5h14.5v47.737h22.634v15.6H817.738Z" fill="#25aae2"/>
    </g>
    <g id="Group_8" data-name="Group 8">
      <path id="Path_27" data-name="Path 27" d="M396.674,818.536h26.475q8.649,0,12.956,5.055t4.307,14.386q0,9.59-4.694,14.991t-14.327,5.4h-8.719v23.5h-16Zm16,27h3.9q4.606,0,6.469-1.966a7.014,7.014,0,0,0,1.864-5.033,7.973,7.973,0,0,0-1.617-5.055q-1.619-2.071-6.083-2.073h-4.535Z" fill="#25aae2"/>
      <path id="Path_28" data-name="Path 28" d="M443.577,835.989h14.888l7.244,29.074,7.517-29.074h14.44L471.8,881.869H459.105Z" fill="#25aae2"/>
      <path id="Path_29" data-name="Path 29" d="M509.043,818.536v17.453h7.875v12.874h-7.875v16.255A10.548,10.548,0,0,0,509.5,869a2.5,2.5,0,0,0,2.461,1.466,13.169,13.169,0,0,0,4.43-1.121l1.055,12.137a38.336,38.336,0,0,1-9.915,1.426q-5.345,0-7.876-1.682a9.827,9.827,0,0,1-3.744-5.114Q494.7,872.68,494.7,865V848.863h-5.274V835.989H494.7v-8.424Z" fill="#25aae2"/>
      <path id="Path_30" data-name="Path 30" d="M523.774,864.243h15.294v17.626H523.774Z" fill="#25aae2"/>
      <path id="Path_31" data-name="Path 31" d="M572.681,818.536h15.926v47.737h24.858v15.6H572.681Z" fill="#25aae2"/>
      <path id="Path_32" data-name="Path 32" d="M637.021,818.536v17.453H644.9v12.874h-7.875v16.255a10.541,10.541,0,0,0,.458,3.88,2.5,2.5,0,0,0,2.46,1.466,13.169,13.169,0,0,0,4.43-1.121l1.055,12.137a38.323,38.323,0,0,1-9.914,1.426q-5.344,0-7.875-1.682a9.816,9.816,0,0,1-3.744-5.114q-1.214-3.43-1.213-11.11V848.863H617.4V835.989h5.276v-8.424Z" fill="#25aae2"/>
      <path id="Path_33" data-name="Path 33" d="M691.026,818.536v63.333h-13.4v-6.782a20.023,20.023,0,0,1-5.134,5.832,12.488,12.488,0,0,1-6.891,1.987q-7.629,0-11.655-7.129t-4.026-17.323q0-11.4,4.448-17.453t11.3-6.048a13.215,13.215,0,0,1,6.064,1.382,14.166,14.166,0,0,1,4.834,4.147V818.536ZM676.681,858.8q0-5.4-1.864-8.057a5.57,5.57,0,0,0-4.711-2.657,4.926,4.926,0,0,0-4.183,2.549q-1.689,2.548-1.689,8.553,0,5.617,1.742,8.23a5.078,5.078,0,0,0,4.306,2.614,5.411,5.411,0,0,0,4.571-2.636Q676.68,864.763,676.681,858.8Z" fill="#25aae2"/>
      <path id="Path_34" data-name="Path 34" d="M699.78,864.243h15.295v17.626H699.78Z" fill="#25aae2"/>
    </g>
  </g>
</svg>
