<svg xmlns="http://www.w3.org/2000/svg" width="366.463" height="344.828" viewBox="0 0 366.463 344.828">
  <g id="Group_19" data-name="Group 19" transform="translate(-46.554 -459.162)" opacity="0.97">
    <path id="Path_69" data-name="Path 69" d="M373.125,576.084v108.2H263.94V793.47h-108.2V684.285H46.554v-108.2H155.738V466.9h108.2V576.084Z" fill="#25aae2"/>
    <path id="Path_70" data-name="Path 70" d="M382.961,567.231s10.82-63.937,4.918-81.643C356.4,463.948,261.972,440.34,212.79,499.359c-28.968,38.117-26.558,79.676-7.324,112.4,11.107,18.9,28.67,33.159,48.218,43.074,37.634,19.088,89.367,37.422,83.425,78.4C332.8,762.977,314.18,772.254,291.6,773.05c-29.955,1.056-71.56-18.707-96.6-105.6-1.487-5.157-7.042-10.113-12.394-10.523a19.315,19.315,0,0,0-12.158,3.12,1.743,1.743,0,0,0-.774,1.714c2.114,15.208,7.861,97.543,13.609,107.122,13.771,19.673,86.561,47.215,157.383,21.64,51.185-19.813,84.355-64.571,62.293-117.989-8.006-19.384-22.163-35.6-39.754-47.021-39.127-25.4-92.354-45.666-97.3-76.967-6.64-14.94.726-57.89,41.006-54.4,16.149,1.4,30.742,10.08,40.6,22.949,10.837,14.15,16.54,29.781,18.4,50.782a6.655,6.655,0,0,0,4.663,5.756C375.528,575.148,380.7,575.541,382.961,567.231Z" fill="#0b9444" stroke="#fff" stroke-miterlimit="10" stroke-width="5.902"/>
  </g>
</svg>
