<svg id="closed-envelope-email" xmlns="http://www.w3.org/2000/svg" width="30" height="24.545" viewBox="0 0 30 24.545">
  <g id="Group_93" data-name="Group 93">
    <path id="Path_167" data-name="Path 167" d="M30,40.836a1.172,1.172,0,0,0-1.169-1.169H1.169A1.172,1.172,0,0,0,0,40.836V63.044a1.172,1.172,0,0,0,1.169,1.169H28.831A1.172,1.172,0,0,0,30,63.044ZM2.338,61.875V48.024l11.747,10.11a1.06,1.06,0,0,0,.74.273,1.363,1.363,0,0,0,.8-.273L27.662,48.063V61.875ZM27.662,42v3.02c-.195.019-.1.039-.117.039l-12.7,10.656L2.377,45c-.019-.019-.039-.039-.039-.058V42Z" transform="translate(0 -39.667)"/>
  </g>
</svg>
