<svg id="instagram" xmlns="http://www.w3.org/2000/svg" width="14.879" height="14.879" viewBox="0 0 14.879 14.879">
  <g id="Group_125" data-name="Group 125">
    <g id="Group_124" data-name="Group 124">
      <path id="Path_314" data-name="Path 314" d="M10.859,0H4.02A4.025,4.025,0,0,0,0,4.02v6.838a4.025,4.025,0,0,0,4.02,4.02h6.839a4.025,4.025,0,0,0,4.02-4.02V4.02A4.025,4.025,0,0,0,10.859,0Zm2.818,10.859a2.821,2.821,0,0,1-2.818,2.818H4.02A2.821,2.821,0,0,1,1.2,10.859V4.02A2.821,2.821,0,0,1,4.02,1.2h6.839A2.821,2.821,0,0,1,13.677,4.02Z" fill="#005d8a"/>
    </g>
  </g>
  <g id="Group_127" data-name="Group 127" transform="translate(4.132 4.073)">
    <g id="Group_126" data-name="Group 126">
      <path id="Path_315" data-name="Path 315" d="M148.822,143.018a3.336,3.336,0,1,0-3.307,3.826,3.38,3.38,0,0,0,.5-.037,3.336,3.336,0,0,0,2.811-3.79Zm-2.987,2.6a2.134,2.134,0,1,1,1.8-2.424A2.12,2.12,0,0,1,145.835,145.619Z" transform="translate(-142.185 -140.171)" fill="#005d8a"/>
    </g>
  </g>
  <g id="Group_129" data-name="Group 129" transform="translate(10.6 3.077)">
    <g id="Group_128" data-name="Group 128">
      <path id="Path_316" data-name="Path 316" d="M365.767,106.069a.6.6,0,1,0,.176.425A.605.605,0,0,0,365.767,106.069Z" transform="translate(-364.741 -105.893)" fill="#005d8a"/>
    </g>
  </g>
</svg>
