<svg id="pirate-treasure-map" xmlns="http://www.w3.org/2000/svg" width="30" height="32.734" viewBox="0 0 30 32.734">
  <g id="Group_38" data-name="Group 38" transform="translate(0 0)">
    <path id="Path_66" data-name="Path 66" d="M54.788,1.98l-8.58,5.352L37.608.273A1.263,1.263,0,0,0,36.148.2l-8.98,5.953a1.175,1.175,0,0,0-.52.97V28.739a1.143,1.143,0,0,0,.64,1.028,1.236,1.236,0,0,0,1.24-.078l7.58-5.022,9.18,7.776a1.178,1.178,0,0,0,.78.291,1.2,1.2,0,0,0,.62-.175l9.38-5.449a1.149,1.149,0,0,0,.58-.989V2.949a1.184,1.184,0,0,0-.62-1.028A1.283,1.283,0,0,0,54.788,1.98Zm-.54,23.5-8.04,4.673-8.76-7.427V18.345a1.2,1.2,0,0,0-2.4,0v4.227l-6,3.975V7.739l7.7-5.1,8.1,6.612V23.969a1.2,1.2,0,0,0,2.4,0V9.464l7-4.382Z" transform="translate(-26.648 0)"/>
    <path id="Path_67" data-name="Path 67" d="M118.6,107.11a1.182,1.182,0,0,0-1.648,0l-1.978,1.978-1.978-1.978a1.165,1.165,0,0,0-1.648,1.648l1.978,1.978-1.978,2a1.182,1.182,0,0,0,0,1.648,1.148,1.148,0,0,0,.814.349,1.116,1.116,0,0,0,.814-.349l2-2,1.978,1.978a1.149,1.149,0,0,0,.814.349,1.116,1.116,0,0,0,.814-.349,1.182,1.182,0,0,0,0-1.648l-1.958-1.978,1.978-1.978A1.147,1.147,0,0,0,118.6,107.11Z" transform="translate(-104.988 -99.468)"/>
  </g>
</svg>
