<svg id="telephone-call-receiver" xmlns="http://www.w3.org/2000/svg" width="30" height="30.709" viewBox="0 0 30 30.709">
  <g id="Group_16" data-name="Group 16" transform="translate(0)">
    <path id="Path_26" data-name="Path 26" d="M2.8,28.677a2.057,2.057,0,0,0,.212.178l1.061.671c.039.02.1.059.135.079A12.587,12.587,0,0,0,9.4,30.71a10.74,10.74,0,0,0,7.8-3.1L27.212,17.368c3.107-3.178,3.879-8.625,1.872-13.243a.8.8,0,0,0-.1-.178L28.312,2.9c-.039-.059-.1-.118-.135-.178L26.382.888A2.92,2.92,0,0,0,24.3,0a2.688,2.688,0,0,0-1.91.809l-5.21,5.329a2.948,2.948,0,0,0,.058,4.105l2.045,2.092L12.315,19.46l-2.084-2.132a2.6,2.6,0,0,0-1.988-.868,2.792,2.792,0,0,0-1.968.829l-5.21,5.329A3.186,3.186,0,0,0,.2,24.67a2.889,2.889,0,0,0,.791,2.151ZM2.7,24.3l5.21-5.329a.49.49,0,0,1,.714.039l2.895,2.96a1.158,1.158,0,0,0,1.64,0l8.587-8.783a1.232,1.232,0,0,0,.347-.829,1.149,1.149,0,0,0-.347-.829l-2.856-2.96a.568.568,0,0,1-.058-.77l5.21-5.329a.347.347,0,0,1,.27-.118.658.658,0,0,1,.444.2l1.7,1.737.56.868c1.833,4.342.56,8.487-1.428,10.5L15.576,25.934A8.48,8.48,0,0,1,9.4,28.341a10.253,10.253,0,0,1-4.168-.868l-.888-.553L2.627,25.164a.528.528,0,0,1-.116-.375A.945.945,0,0,1,2.7,24.3Z" transform="translate(-0.193)"/>
  </g>
</svg>
