<svg id="tiwtter" xmlns="http://www.w3.org/2000/svg" width="17.662" height="14.35" viewBox="0 0 17.662 14.35">
  <g id="Group_107" data-name="Group 107" transform="translate(0)">
    <path id="Path_300" data-name="Path 300" d="M17.662,49.7a7.549,7.549,0,0,1-2.086.572,3.6,3.6,0,0,0,1.593-2,7.236,7.236,0,0,1-2.3.876,3.621,3.621,0,0,0-6.263,2.476,3.728,3.728,0,0,0,.084.826A10.249,10.249,0,0,1,1.23,48.66,3.622,3.622,0,0,0,2.342,53.5a3.576,3.576,0,0,1-1.636-.446v.04a3.637,3.637,0,0,0,2.9,3.558,3.614,3.614,0,0,1-.949.119,3.2,3.2,0,0,1-.685-.062,3.655,3.655,0,0,0,3.383,2.522A7.275,7.275,0,0,1,.867,60.775,6.78,6.78,0,0,1,0,60.725,10.194,10.194,0,0,0,5.555,62.35a10.234,10.234,0,0,0,10.306-10.3c0-.16-.006-.315-.013-.468A7.223,7.223,0,0,0,17.662,49.7Z" transform="translate(0 -48)" fill="#005d8a"/>
  </g>
</svg>
